<svg width="14" height="14" viewBox="0 0 14 14" fill="none" xmlns="http://www.w3.org/2000/svg">
<path d="M8.65881 6.99817L13.6591 1.99791C14.1136 1.54334 14.1136 0.795496 13.6591 0.340927C13.2045 -0.113642 12.4567 -0.113642 12.0021 0.340927L7.00183 5.34119L2.00157 0.340927C1.547 -0.113642 0.799162 -0.113642 0.344593 0.340927C0.117308 0.568212 0 0.868814 0 1.16942C0 1.47002 0.117308 1.77062 0.344593 1.99791L5.34485 6.99817L0.344593 11.9984C0.117308 12.2257 0 12.5263 0 12.8269C0 13.1275 0.117308 13.4281 0.344593 13.6554C0.799162 14.11 1.547 14.11 2.00157 13.6554L7.00183 8.65515L12.0021 13.6554C12.4567 14.11 13.2045 14.11 13.6591 13.6554C14.1136 13.2008 14.1136 12.453 13.6591 11.9984L8.65881 6.99817Z" fill="white"/>
</svg>
